<?xml version="1.0" encoding="UTF-8"?>
<!DOCTYPE svg PUBLIC "-//W3C//DTD SVG 1.1//EN" "http://www.w3.org/Graphics/SVG/1.1/DTD/svg11.dtd">
<svg xmlns="http://www.w3.org/2000/svg" version="1.1" width="957px" height="281px" style="shape-rendering:geometricPrecision; text-rendering:geometricPrecision; image-rendering:optimizeQuality; fill-rule:evenodd; clip-rule:evenodd" xmlns:xlink="http://www.w3.org/1999/xlink">
<g><path style="opacity:1" fill="#e6595c" d="M -0.5,-0.5 C 318.5,-0.5 637.5,-0.5 956.5,-0.5C 956.5,93.1667 956.5,186.833 956.5,280.5C 637.5,280.5 318.5,280.5 -0.5,280.5C -0.5,186.833 -0.5,93.1667 -0.5,-0.5 Z"/></g>
<g><path style="opacity:1" fill="#32568f" d="M 56.5,88.5 C 56.2743,83.4376 56.6076,78.4376 57.5,73.5C 61.0001,66.5307 66.6668,63.6974 74.5,65C 86.6665,69.8417 90.1665,78.3417 85,90.5C 79.1986,98.8735 71.6986,100.707 62.5,96C 59.8792,93.8859 57.8792,91.3859 56.5,88.5 Z"/></g>
<g><path style="opacity:1" fill="#30568f" d="M 131.5,96.5 C 127.548,97.2721 123.548,97.6054 119.5,97.5C 111.043,93.5924 107.543,86.9257 109,77.5C 113.962,64.9382 122.462,61.7716 134.5,68C 141.37,75.4673 142.203,83.634 137,92.5C 135.568,94.4388 133.735,95.7721 131.5,96.5 Z"/></g>
<g><path style="opacity:1" fill="#31568f" d="M 192.5,74.5 C 193.65,78.8591 193.65,83.1924 192.5,87.5C 190.85,92.4834 187.517,95.8167 182.5,97.5C 178.466,97.4955 174.466,97.1621 170.5,96.5C 163.136,91.9445 160.303,85.2778 162,76.5C 167.496,64.6689 175.996,61.8356 187.5,68C 189.79,69.7772 191.457,71.9438 192.5,74.5 Z"/></g>
<g><path style="opacity:1" fill="#2b5690" d="M 321.5,121.5 C 320.561,131.468 319.894,141.468 319.5,151.5C 317.185,169.629 315.519,187.963 314.5,206.5C 301.167,206.5 287.833,206.5 274.5,206.5C 277.902,159.815 281.568,113.148 285.5,66.5C 299.167,66.5 312.833,66.5 326.5,66.5C 324.893,84.8401 323.227,103.173 321.5,121.5 Z"/></g>
<g><path style="opacity:1" fill="#2a5590" d="M 332.5,151.5 C 333.184,141.413 334.517,131.413 336.5,121.5C 344.833,121.5 353.167,121.5 361.5,121.5C 362.472,103.141 363.805,84.8076 365.5,66.5C 378.833,66.5 392.167,66.5 405.5,66.5C 402.161,113.231 398.161,159.898 393.5,206.5C 380.167,206.5 366.833,206.5 353.5,206.5C 355.218,188.168 356.884,169.835 358.5,151.5C 349.833,151.5 341.167,151.5 332.5,151.5 Z"/></g>
<g><path style="opacity:1" fill="#2a5690" d="M 506.5,153.5 C 491.653,156.226 476.653,157.226 461.5,156.5C 459.833,156.5 458.167,156.5 456.5,156.5C 454.395,173.099 453.061,189.766 452.5,206.5C 438.829,206.667 425.163,206.5 411.5,206C 416.089,159.599 420.089,113.099 423.5,66.5C 451.502,66.3334 479.502,66.5 507.5,67C 528.09,72.9255 539.09,86.5922 540.5,108C 539.138,130.834 527.804,146 506.5,153.5 Z"/></g>
<g><path style="opacity:1" fill="#2b5690" d="M 596.5,66.5 C 594.829,89.8676 592.829,113.201 590.5,136.5C 588.539,159.835 586.539,183.168 584.5,206.5C 571.167,206.5 557.833,206.5 544.5,206.5C 548.103,159.8 552.103,113.133 556.5,66.5C 569.833,66.5 583.167,66.5 596.5,66.5 Z"/></g>
<g><path style="opacity:1" fill="#2a5590" d="M 605.5,159.5 C 607.122,137.488 608.956,115.488 611,93.5C 611.383,92.944 611.883,92.6107 612.5,92.5C 621.071,107.305 629.904,121.972 639,136.5C 641.317,113.178 643.484,89.8442 645.5,66.5C 658.833,66.5 672.167,66.5 685.5,66.5C 682.051,113.217 678.051,159.884 673.5,206.5C 660.163,206.667 646.829,206.5 633.5,206C 623.767,190.693 614.434,175.193 605.5,159.5 Z"/></g>
<g><path style="opacity:1" fill="#295690" d="M 740.5,96.5 C 727.5,96.5 714.5,96.5 701.5,96.5C 701.5,95.5 701.5,94.5 701.5,93.5C 701.891,84.4759 702.558,75.4759 703.5,66.5C 736.833,66.5 770.167,66.5 803.5,66.5C 802.569,76.4811 801.902,86.4811 801.5,96.5C 781.167,96.5 760.833,96.5 740.5,96.5 Z"/></g>
<g><path style="opacity:1" fill="#295690" d="M 885.5,96.5 C 871.833,96.5 858.167,96.5 844.5,96.5C 831.5,96.5 818.5,96.5 805.5,96.5C 806.227,86.5043 806.894,76.5043 807.5,66.5C 847.833,66.5 888.167,66.5 928.5,66.5C 927.39,76.4894 926.39,86.4894 925.5,96.5C 912.167,96.5 898.833,96.5 885.5,96.5 Z"/></g>
<g><path style="opacity:1" fill="#1f3e68" d="M 596.5,66.5 C 599.403,70.6301 602.07,74.9634 604.5,79.5C 603.213,80.8714 602.547,82.7047 602.5,85C 600.585,105.485 598.918,125.985 597.5,146.5C 595.167,143.167 592.833,139.833 590.5,136.5C 592.829,113.201 594.829,89.8676 596.5,66.5 Z"/></g>
<g><path style="opacity:1" fill="#79587c" d="M 57.5,73.5 C 56.6076,78.4376 56.2743,83.4376 56.5,88.5C 54.1338,84.0272 53.9671,79.3605 56,74.5C 56.3826,73.944 56.8826,73.6107 57.5,73.5 Z"/></g>
<g><path style="opacity:1" fill="#945873" d="M 192.5,74.5 C 194.017,76.4621 194.684,78.7954 194.5,81.5C 194.333,83.1667 194.167,84.8333 194,86.5C 193.617,87.056 193.117,87.3893 192.5,87.5C 193.65,83.1924 193.65,78.8591 192.5,74.5 Z"/></g>
<g><path style="opacity:1" fill="#254a7c" d="M 604.5,79.5 C 607.403,83.6301 610.07,87.9634 612.5,92.5C 611.883,92.6107 611.383,92.944 611,93.5C 608.956,115.488 607.122,137.488 605.5,159.5C 602.597,155.37 599.93,151.037 597.5,146.5C 598.918,125.985 600.585,105.485 602.5,85C 602.547,82.7047 603.213,80.8714 604.5,79.5 Z"/></g>
<g><path style="opacity:1" fill="#1e3a62" d="M 701.5,93.5 C 701.5,94.5 701.5,95.5 701.5,96.5C 714.5,96.5 727.5,96.5 740.5,96.5C 740.818,101.032 740.485,105.366 739.5,109.5C 739.5,108.5 739.5,107.5 739.5,106.5C 726.124,107.148 713.124,106.481 700.5,104.5C 700.185,100.629 700.518,96.9619 701.5,93.5 Z"/></g>
<g><path style="opacity:1" fill="#1e3a62" d="M 844.5,96.5 C 858.167,96.5 871.833,96.5 885.5,96.5C 885.756,100.269 885.423,103.936 884.5,107.5C 871.167,107.5 857.833,107.5 844.5,107.5C 844.5,103.833 844.5,100.167 844.5,96.5 Z"/></g>
<g><path style="opacity:1" fill="#855877" d="M 131.5,96.5 C 129.538,98.0173 127.205,98.6839 124.5,98.5C 122.631,98.4932 120.964,98.1599 119.5,97.5C 123.548,97.6054 127.548,97.2721 131.5,96.5 Z"/></g>
<g><path style="opacity:1" fill="#815878" d="M 170.5,96.5 C 174.466,97.1621 178.466,97.4955 182.5,97.5C 181.036,98.1599 179.369,98.4932 177.5,98.5C 174.795,98.6839 172.462,98.0173 170.5,96.5 Z"/></g>
<g><path style="opacity:1" fill="#e55a5c" d="M 461.5,97.5 C 471.839,97.3335 482.172,97.5002 492.5,98C 503.252,107.236 502.918,116.236 491.5,125C 480.912,126.429 470.245,126.929 459.5,126.5C 459.926,116.815 460.593,107.149 461.5,97.5 Z"/></g>
<g><path style="opacity:1" fill="#2e568f" d="M 95.5,127.5 C 79.5,127.5 63.5,127.5 47.5,127.5C 47.5,126.5 47.5,125.5 47.5,124.5C 48.1635,118.007 50.8301,112.507 55.5,108C 65.8333,107.333 76.1667,107.333 86.5,108C 92.288,113.191 95.288,119.691 95.5,127.5 Z"/></g>
<g><path style="opacity:1" fill="#2e568f" d="M 146.5,117.5 C 146.959,120.877 147.626,124.211 148.5,127.5C 132.5,127.5 116.5,127.5 100.5,127.5C 100.5,126.5 100.5,125.5 100.5,124.5C 101.09,118.177 103.756,112.844 108.5,108.5C 118.817,107.334 129.151,107.168 139.5,108C 142.848,110.501 145.182,113.668 146.5,117.5 Z"/></g>
<g><path style="opacity:1" fill="#2c5690" d="M 201.5,124.5 C 201.5,125.5 201.5,126.5 201.5,127.5C 185.833,127.5 170.167,127.5 154.5,127.5C 154.414,123.681 155.081,120.015 156.5,116.5C 157.629,113.082 159.629,110.249 162.5,108C 172.833,107.333 183.167,107.333 193.5,108C 198.178,112.524 200.845,118.024 201.5,124.5 Z"/></g>
<g><path style="opacity:1" fill="#254676" d="M 700.5,104.5 C 713.124,106.481 726.124,107.148 739.5,106.5C 739.5,107.5 739.5,108.5 739.5,109.5C 739.5,113.5 739.5,117.5 739.5,121.5C 738.527,119.052 738.194,116.385 738.5,113.5C 725.5,113.5 712.5,113.5 699.5,113.5C 699.19,110.287 699.523,107.287 700.5,104.5 Z"/></g>
<g><path style="opacity:1" fill="#254371" d="M 844.5,107.5 C 857.833,107.5 871.167,107.5 884.5,107.5C 884.813,111.042 884.479,114.375 883.5,117.5C 883.5,116.167 883.5,114.833 883.5,113.5C 870.5,113.5 857.5,113.5 844.5,113.5C 844.737,114.791 844.404,115.791 843.5,116.5C 843.264,113.391 843.597,110.391 844.5,107.5 Z"/></g>
<g><path style="opacity:1" fill="#274c80" d="M 883.5,117.5 C 883.817,121.702 883.483,125.702 882.5,129.5C 882.5,127.167 882.5,124.833 882.5,122.5C 869.5,122.5 856.5,122.5 843.5,122.5C 843.784,124.415 843.451,126.081 842.5,127.5C 842.423,123.785 842.756,120.119 843.5,116.5C 844.404,115.791 844.737,114.791 844.5,113.5C 857.5,113.5 870.5,113.5 883.5,113.5C 883.5,114.833 883.5,116.167 883.5,117.5 Z"/></g>
<g><path style="opacity:1" fill="#2a5590" d="M 699.5,113.5 C 712.5,113.5 725.5,113.5 738.5,113.5C 738.194,116.385 738.527,119.052 739.5,121.5C 752.5,121.5 765.5,121.5 778.5,121.5C 777.502,131.475 776.835,141.475 776.5,151.5C 763.167,151.5 749.833,151.5 736.5,151.5C 735.558,159.805 734.891,168.139 734.5,176.5C 754.5,176.5 774.5,176.5 794.5,176.5C 793.74,186.532 792.74,196.532 791.5,206.5C 758.167,206.5 724.833,206.5 691.5,206.5C 693.815,175.421 696.482,144.421 699.5,113.5 Z"/></g>
<g><path style="opacity:1" fill="#1f4373" d="M 321.5,121.5 C 326.5,121.5 331.5,121.5 336.5,121.5C 334.517,131.413 333.184,141.413 332.5,151.5C 328.167,151.5 323.833,151.5 319.5,151.5C 319.894,141.468 320.561,131.468 321.5,121.5 Z"/></g>
<g><path style="opacity:1" fill="#2a5590" d="M 882.5,129.5 C 880.434,155.161 878.434,180.827 876.5,206.5C 862.833,206.5 849.167,206.5 835.5,206.5C 837.966,180.183 840.299,153.85 842.5,127.5C 843.451,126.081 843.784,124.415 843.5,122.5C 856.5,122.5 869.5,122.5 882.5,122.5C 882.5,124.833 882.5,127.167 882.5,129.5 Z"/></g>
<g><path style="opacity:1" fill="#8b5875" d="M 47.5,124.5 C 47.5,125.5 47.5,126.5 47.5,127.5C 63.5,127.5 79.5,127.5 95.5,127.5C 79.3419,128.496 63.0085,128.83 46.5,128.5C 46.2322,126.901 46.5655,125.568 47.5,124.5 Z"/></g>
<g><path style="opacity:1" fill="#915873" d="M 146.5,117.5 C 148.483,120.799 149.483,124.466 149.5,128.5C 132.833,128.5 116.167,128.5 99.5,128.5C 99.2322,126.901 99.5655,125.568 100.5,124.5C 100.5,125.5 100.5,126.5 100.5,127.5C 116.5,127.5 132.5,127.5 148.5,127.5C 147.626,124.211 146.959,120.877 146.5,117.5 Z"/></g>
<g><path style="opacity:1" fill="#8d5874" d="M 156.5,116.5 C 155.081,120.015 154.414,123.681 154.5,127.5C 170.167,127.5 185.833,127.5 201.5,127.5C 201.5,126.5 201.5,125.5 201.5,124.5C 202.434,125.568 202.768,126.901 202.5,128.5C 186.167,128.5 169.833,128.5 153.5,128.5C 153.336,125.813 153.503,123.146 154,120.5C 154.2,118.68 155.034,117.347 156.5,116.5 Z"/></g>
<g><path style="opacity:1" fill="#2b5690" d="M 94.5,148.5 C 107.751,166.404 124.418,170.238 144.5,160C 149.045,156.956 152.711,153.123 155.5,148.5C 158.863,143.393 160.529,137.726 160.5,131.5C 174.833,131.5 189.167,131.5 203.5,131.5C 203.5,136.5 203.5,141.5 203.5,146.5C 196.313,146.175 189.313,146.509 182.5,147.5C 180.236,150.792 179.07,154.459 179,158.5C 183.333,162.833 187.667,167.167 192,171.5C 185.412,180.878 177.412,189.211 168,196.5C 162.696,192.031 157.529,187.365 152.5,182.5C 149.292,183.609 146.292,184.942 143.5,186.5C 142.509,193.313 142.175,200.313 142.5,207.5C 130.833,207.5 119.167,207.5 107.5,207.5C 107.83,200.468 107.497,193.468 106.5,186.5C 103.5,185.167 100.5,183.833 97.5,182.5C 92.471,187.365 87.3043,192.031 82,196.5C 73.0631,189.452 64.8964,181.619 57.5,173C 61.6201,167.878 66.1201,163.044 71,158.5C 70.7022,154.759 69.8689,151.092 68.5,147.5C 61.1667,147.5 53.8333,147.5 46.5,147.5C 46.5,142.167 46.5,136.833 46.5,131.5C 60.8333,131.5 75.1667,131.5 89.5,131.5C 89.4787,137.765 91.1454,143.431 94.5,148.5 Z"/></g>
<g><path style="opacity:1" fill="#2c5690" d="M 153.5,146.5 C 140.815,163.087 125.148,166.587 106.5,157C 102.36,154.179 99.0268,150.679 96.5,146.5C 95.6205,143.738 94.4538,141.071 93,138.5C 92.5034,136.19 92.3367,133.857 92.5,131.5C 114.167,131.5 135.833,131.5 157.5,131.5C 157.631,136.901 156.297,141.901 153.5,146.5 Z"/></g>
<g><path style="opacity:1" fill="#885876" d="M 203.5,131.5 C 204.488,136.64 204.821,141.974 204.5,147.5C 197.167,147.5 189.833,147.5 182.5,147.5C 189.313,146.509 196.313,146.175 203.5,146.5C 203.5,141.5 203.5,136.5 203.5,131.5 Z"/></g>
<g><path style="opacity:1" fill="#1c3a62" d="M 506.5,153.5 C 509.07,158.311 511.403,163.311 513.5,168.5C 498.5,169.167 483.5,169.833 468.5,170.5C 466.199,165.899 463.866,161.232 461.5,156.5C 476.653,157.226 491.653,156.226 506.5,153.5 Z"/></g>
<g><path style="opacity:1" fill="#d8595f" d="M 96.5,146.5 C 99.0268,150.679 102.36,154.179 106.5,157C 125.148,166.587 140.815,163.087 153.5,146.5C 153.5,147.833 154.167,148.5 155.5,148.5C 152.711,153.123 149.045,156.956 144.5,160C 124.418,170.238 107.751,166.404 94.5,148.5C 95.8333,148.5 96.5,147.833 96.5,146.5 Z"/></g>
<g><path style="opacity:1" fill="#244a7d" d="M 513.5,168.5 C 516.07,173.311 518.403,178.311 520.5,183.5C 505.324,183.171 490.324,183.504 475.5,184.5C 472.659,180.151 470.326,175.484 468.5,170.5C 483.5,169.833 498.5,169.167 513.5,168.5 Z"/></g>
<g><path style="opacity:1" fill="#295590" d="M 520.5,183.5 C 524.147,190.729 527.814,198.063 531.5,205.5C 516.178,206.666 500.844,206.833 485.5,206C 481.48,199.127 478.146,191.961 475.5,184.5C 490.324,183.504 505.324,183.171 520.5,183.5 Z"/></g>
<g><path style="opacity:1" fill="#905774" d="M 143.5,186.5 C 143.5,193.833 143.5,201.167 143.5,208.5C 131.322,208.828 119.322,208.495 107.5,207.5C 119.167,207.5 130.833,207.5 142.5,207.5C 142.175,200.313 142.509,193.313 143.5,186.5 Z"/></g>
</svg>
